<mxfile host="app.diagrams.net" modified="2022-05-30T01:35:09.280Z" agent="5.0 (Windows NT 10.0; WOW64) AppleWebKit/537.36 (KHTML, like Gecko) Chrome/101.0.4951.67 Safari/537.36" etag="cAaepO7c1YkyoboszFLa" version="18.1.2" type="github">
  <diagram id="-gdg9htdJJ3zSSXaxXA8" name="Page-1">
    <mxGraphModel dx="778" dy="918" grid="1" gridSize="10" guides="1" tooltips="1" connect="1" arrows="1" fold="1" page="0" pageScale="1" pageWidth="827" pageHeight="1169" math="0" shadow="0">
      <root>
        <mxCell id="0" />
        <mxCell id="1" parent="0" />
        <mxCell id="AwsAyfKVxBf3ktl2MzY7-2" value="" style="shape=parallelogram;html=1;strokeWidth=2;perimeter=parallelogramPerimeter;whiteSpace=wrap;rounded=1;arcSize=0;size=0.2796562499999993;rotation=-15;" vertex="1" parent="1">
          <mxGeometry x="310.17" y="-28.71" width="80" height="80" as="geometry" />
        </mxCell>
        <mxCell id="AwsAyfKVxBf3ktl2MzY7-3" value="R_MK" style="text;html=1;align=center;verticalAlign=middle;resizable=0;points=[];autosize=1;strokeColor=none;fillColor=none;" vertex="1" parent="1">
          <mxGeometry x="325.17" y="1.29" width="50" height="20" as="geometry" />
        </mxCell>
        <mxCell id="AwsAyfKVxBf3ktl2MzY7-4" value="" style="shape=trapezoid;perimeter=trapezoidPerimeter;whiteSpace=wrap;html=1;fixedSize=1;rotation=90;" vertex="1" parent="1">
          <mxGeometry x="110" y="-70" width="120" height="60" as="geometry" />
        </mxCell>
        <mxCell id="AwsAyfKVxBf3ktl2MzY7-5" value="KC1" style="text;html=1;align=center;verticalAlign=middle;resizable=0;points=[];autosize=1;strokeColor=none;fillColor=none;" vertex="1" parent="1">
          <mxGeometry x="150" y="-48.71" width="40" height="20" as="geometry" />
        </mxCell>
        <mxCell id="AwsAyfKVxBf3ktl2MzY7-6" value="" style="edgeStyle=elbowEdgeStyle;elbow=horizontal;endArrow=classic;html=1;rounded=0;exitX=0.5;exitY=0;exitDx=0;exitDy=0;entryX=0;entryY=0.5;entryDx=0;entryDy=0;" edge="1" parent="1" source="AwsAyfKVxBf3ktl2MzY7-4" target="AwsAyfKVxBf3ktl2MzY7-2">
          <mxGeometry width="50" height="50" relative="1" as="geometry">
            <mxPoint x="210" y="-40" as="sourcePoint" />
            <mxPoint x="260" y="-90" as="targetPoint" />
          </mxGeometry>
        </mxCell>
        <mxCell id="AwsAyfKVxBf3ktl2MzY7-7" value="NEXT_A0" style="text;html=1;align=center;verticalAlign=middle;resizable=0;points=[];autosize=1;strokeColor=none;fillColor=none;" vertex="1" parent="1">
          <mxGeometry x="255" width="70" height="20" as="geometry" />
        </mxCell>
        <mxCell id="AwsAyfKVxBf3ktl2MzY7-9" value="ROM" style="rounded=0;whiteSpace=wrap;html=1;" vertex="1" parent="1">
          <mxGeometry x="460" y="-43.71" width="70" height="110" as="geometry" />
        </mxCell>
        <mxCell id="AwsAyfKVxBf3ktl2MzY7-10" value="" style="endArrow=none;html=1;rounded=0;exitX=0.832;exitY=0.583;exitDx=0;exitDy=0;entryX=0;entryY=0.5;entryDx=0;entryDy=0;exitPerimeter=0;" edge="1" parent="1" source="AwsAyfKVxBf3ktl2MzY7-2" target="AwsAyfKVxBf3ktl2MzY7-9">
          <mxGeometry width="50" height="50" relative="1" as="geometry">
            <mxPoint x="410" y="100" as="sourcePoint" />
            <mxPoint x="460" y="50" as="targetPoint" />
          </mxGeometry>
        </mxCell>
        <mxCell id="AwsAyfKVxBf3ktl2MzY7-11" value="" style="endArrow=none;html=1;rounded=0;fontFamily=Helvetica;fontSize=18;" edge="1" parent="1">
          <mxGeometry width="50" height="50" relative="1" as="geometry">
            <mxPoint x="418.9999999999998" y="21.289999999999992" as="sourcePoint" />
            <mxPoint x="428.9999999999998" y="1.289999999999992" as="targetPoint" />
          </mxGeometry>
        </mxCell>
        <mxCell id="AwsAyfKVxBf3ktl2MzY7-12" value="4" style="text;html=1;align=center;verticalAlign=middle;resizable=0;points=[];autosize=1;strokeColor=none;fillColor=none;" vertex="1" parent="1">
          <mxGeometry x="406" y="-9.710000000000008" width="20" height="20" as="geometry" />
        </mxCell>
        <mxCell id="AwsAyfKVxBf3ktl2MzY7-13" value="" style="shape=crossbar;whiteSpace=wrap;html=1;rounded=1;direction=south;" vertex="1" parent="1">
          <mxGeometry x="530" y="-43.70999999999998" width="10" height="40" as="geometry" />
        </mxCell>
        <mxCell id="AwsAyfKVxBf3ktl2MzY7-14" value="22" style="text;html=1;align=center;verticalAlign=middle;resizable=0;points=[];autosize=1;strokeColor=none;fillColor=none;" vertex="1" parent="1">
          <mxGeometry x="530" y="-48.71" width="30" height="20" as="geometry" />
        </mxCell>
        <mxCell id="AwsAyfKVxBf3ktl2MzY7-15" value="20" style="text;html=1;align=center;verticalAlign=middle;resizable=0;points=[];autosize=1;strokeColor=none;fillColor=none;" vertex="1" parent="1">
          <mxGeometry x="530" y="-20" width="30" height="20" as="geometry" />
        </mxCell>
        <mxCell id="AwsAyfKVxBf3ktl2MzY7-16" value="" style="shape=crossbar;whiteSpace=wrap;html=1;rounded=1;direction=south;" vertex="1" parent="1">
          <mxGeometry x="530" y="26.29000000000002" width="10" height="40" as="geometry" />
        </mxCell>
        <mxCell id="AwsAyfKVxBf3ktl2MzY7-17" value="15" style="text;html=1;align=center;verticalAlign=middle;resizable=0;points=[];autosize=1;strokeColor=none;fillColor=none;" vertex="1" parent="1">
          <mxGeometry x="530" y="21.29" width="30" height="20" as="geometry" />
        </mxCell>
        <mxCell id="AwsAyfKVxBf3ktl2MzY7-18" value="0" style="text;html=1;align=center;verticalAlign=middle;resizable=0;points=[];autosize=1;strokeColor=none;fillColor=none;" vertex="1" parent="1">
          <mxGeometry x="530" y="51.290000000000006" width="20" height="20" as="geometry" />
        </mxCell>
        <mxCell id="AwsAyfKVxBf3ktl2MzY7-19" value="" style="shape=trapezoid;perimeter=trapezoidPerimeter;whiteSpace=wrap;html=1;fixedSize=1;rotation=90;" vertex="1" parent="1">
          <mxGeometry x="590" y="20" width="120" height="60" as="geometry" />
        </mxCell>
        <mxCell id="AwsAyfKVxBf3ktl2MzY7-20" value="KC3" style="text;html=1;align=center;verticalAlign=middle;resizable=0;points=[];autosize=1;strokeColor=none;fillColor=none;" vertex="1" parent="1">
          <mxGeometry x="630" y="41.29" width="40" height="20" as="geometry" />
        </mxCell>
        <mxCell id="AwsAyfKVxBf3ktl2MzY7-21" value="" style="endArrow=none;html=1;rounded=0;exitX=0.576;exitY=0.512;exitDx=0;exitDy=0;entryX=0.5;entryY=1;entryDx=0;entryDy=0;exitPerimeter=0;" edge="1" parent="1" source="AwsAyfKVxBf3ktl2MzY7-16" target="AwsAyfKVxBf3ktl2MzY7-19">
          <mxGeometry width="50" height="50" relative="1" as="geometry">
            <mxPoint x="387.5435484057184" y="20.829513648636407" as="sourcePoint" />
            <mxPoint x="470" y="21.289999999999964" as="targetPoint" />
          </mxGeometry>
        </mxCell>
        <mxCell id="AwsAyfKVxBf3ktl2MzY7-22" value="" style="endArrow=none;html=1;rounded=0;fontFamily=Helvetica;fontSize=18;" edge="1" parent="1">
          <mxGeometry width="50" height="50" relative="1" as="geometry">
            <mxPoint x="579.9999999999998" y="61.789999999999964" as="sourcePoint" />
            <mxPoint x="589.9999999999998" y="41.789999999999964" as="targetPoint" />
          </mxGeometry>
        </mxCell>
        <mxCell id="AwsAyfKVxBf3ktl2MzY7-23" value="16" style="text;html=1;align=center;verticalAlign=middle;resizable=0;points=[];autosize=1;strokeColor=none;fillColor=none;" vertex="1" parent="1">
          <mxGeometry x="562" y="30.789999999999992" width="30" height="20" as="geometry" />
        </mxCell>
        <mxCell id="AwsAyfKVxBf3ktl2MzY7-24" value="" style="endArrow=classic;html=1;rounded=0;exitX=0.5;exitY=0;exitDx=0;exitDy=0;" edge="1" parent="1" source="AwsAyfKVxBf3ktl2MzY7-19">
          <mxGeometry width="50" height="50" relative="1" as="geometry">
            <mxPoint x="640" y="100" as="sourcePoint" />
            <mxPoint x="760" y="50" as="targetPoint" />
          </mxGeometry>
        </mxCell>
        <mxCell id="AwsAyfKVxBf3ktl2MzY7-25" value="" style="endArrow=none;html=1;rounded=0;fontFamily=Helvetica;fontSize=18;" edge="1" parent="1">
          <mxGeometry width="50" height="50" relative="1" as="geometry">
            <mxPoint x="717.9999999999998" y="61.79000000000008" as="sourcePoint" />
            <mxPoint x="727.9999999999998" y="41.79000000000008" as="targetPoint" />
          </mxGeometry>
        </mxCell>
        <mxCell id="AwsAyfKVxBf3ktl2MzY7-26" value="15" style="text;html=1;align=center;verticalAlign=middle;resizable=0;points=[];autosize=1;strokeColor=none;fillColor=none;" vertex="1" parent="1">
          <mxGeometry x="700" y="30.789999999999992" width="30" height="20" as="geometry" />
        </mxCell>
        <mxCell id="AwsAyfKVxBf3ktl2MzY7-27" value="YC[1-15]" style="text;html=1;align=center;verticalAlign=middle;resizable=0;points=[];autosize=1;strokeColor=none;fillColor=none;" vertex="1" parent="1">
          <mxGeometry x="730" y="30.29" width="60" height="20" as="geometry" />
        </mxCell>
        <mxCell id="AwsAyfKVxBf3ktl2MzY7-28" value="" style="endArrow=none;html=1;rounded=0;entryX=0.5;entryY=0.5;entryDx=0;entryDy=0;entryPerimeter=0;" edge="1" parent="1" target="AwsAyfKVxBf3ktl2MzY7-13">
          <mxGeometry width="50" height="50" relative="1" as="geometry">
            <mxPoint x="580" y="-24" as="sourcePoint" />
            <mxPoint x="520" y="50" as="targetPoint" />
          </mxGeometry>
        </mxCell>
        <mxCell id="AwsAyfKVxBf3ktl2MzY7-29" value="" style="endArrow=none;html=1;rounded=0;" edge="1" parent="1">
          <mxGeometry width="50" height="50" relative="1" as="geometry">
            <mxPoint x="580" y="-80" as="sourcePoint" />
            <mxPoint x="580" y="-24" as="targetPoint" />
          </mxGeometry>
        </mxCell>
        <mxCell id="AwsAyfKVxBf3ktl2MzY7-30" value="" style="endArrow=none;html=1;rounded=0;" edge="1" parent="1">
          <mxGeometry width="50" height="50" relative="1" as="geometry">
            <mxPoint x="280" y="-80" as="sourcePoint" />
            <mxPoint x="580" y="-80" as="targetPoint" />
          </mxGeometry>
        </mxCell>
        <mxCell id="AwsAyfKVxBf3ktl2MzY7-31" value="" style="endArrow=none;html=1;rounded=0;" edge="1" parent="1">
          <mxGeometry width="50" height="50" relative="1" as="geometry">
            <mxPoint x="280" y="-80" as="sourcePoint" />
            <mxPoint x="280" y="-10" as="targetPoint" />
          </mxGeometry>
        </mxCell>
        <mxCell id="AwsAyfKVxBf3ktl2MzY7-32" value="" style="endArrow=none;html=1;rounded=0;entryX=0.219;entryY=0.15;entryDx=0;entryDy=0;entryPerimeter=0;" edge="1" parent="1" target="AwsAyfKVxBf3ktl2MzY7-2">
          <mxGeometry width="50" height="50" relative="1" as="geometry">
            <mxPoint x="280" y="-10" as="sourcePoint" />
            <mxPoint x="400" y="-30" as="targetPoint" />
          </mxGeometry>
        </mxCell>
        <mxCell id="AwsAyfKVxBf3ktl2MzY7-33" value="" style="endArrow=none;html=1;rounded=0;fontFamily=Helvetica;fontSize=18;" edge="1" parent="1">
          <mxGeometry width="50" height="50" relative="1" as="geometry">
            <mxPoint x="300.16999999999973" y="2.2899999999999636" as="sourcePoint" />
            <mxPoint x="310.16999999999973" y="-17.710000000000036" as="targetPoint" />
          </mxGeometry>
        </mxCell>
        <mxCell id="AwsAyfKVxBf3ktl2MzY7-34" value="3" style="text;html=1;align=center;verticalAlign=middle;resizable=0;points=[];autosize=1;strokeColor=none;fillColor=none;" vertex="1" parent="1">
          <mxGeometry x="287.16999999999996" y="-28.710000000000008" width="20" height="20" as="geometry" />
        </mxCell>
        <mxCell id="AwsAyfKVxBf3ktl2MzY7-35" value="A[3-1]" style="text;html=1;align=center;verticalAlign=middle;resizable=0;points=[];autosize=1;strokeColor=none;fillColor=none;" vertex="1" parent="1">
          <mxGeometry x="275.17" y="-80" width="50" height="20" as="geometry" />
        </mxCell>
        <mxCell id="AwsAyfKVxBf3ktl2MzY7-36" value="" style="shape=crossbar;whiteSpace=wrap;html=1;rounded=1;direction=south;" vertex="1" parent="1">
          <mxGeometry x="530" y="-3.71" width="10" height="30" as="geometry" />
        </mxCell>
        <mxCell id="AwsAyfKVxBf3ktl2MzY7-37" value="19" style="text;html=1;align=center;verticalAlign=middle;resizable=0;points=[];autosize=1;strokeColor=none;fillColor=none;" vertex="1" parent="1">
          <mxGeometry x="530" y="-8.71" width="30" height="20" as="geometry" />
        </mxCell>
        <mxCell id="AwsAyfKVxBf3ktl2MzY7-38" value="16" style="text;html=1;align=center;verticalAlign=middle;resizable=0;points=[];autosize=1;strokeColor=none;fillColor=none;" vertex="1" parent="1">
          <mxGeometry x="530" y="10.29" width="30" height="20" as="geometry" />
        </mxCell>
        <mxCell id="AwsAyfKVxBf3ktl2MzY7-39" value="" style="endArrow=none;html=1;rounded=0;entryX=0.207;entryY=0.095;entryDx=0;entryDy=0;entryPerimeter=0;" edge="1" parent="1" target="AwsAyfKVxBf3ktl2MzY7-38">
          <mxGeometry width="50" height="50" relative="1" as="geometry">
            <mxPoint x="600" y="12" as="sourcePoint" />
            <mxPoint x="545" y="-13.710000000000036" as="targetPoint" />
          </mxGeometry>
        </mxCell>
        <mxCell id="AwsAyfKVxBf3ktl2MzY7-40" value="" style="endArrow=none;html=1;rounded=0;" edge="1" parent="1">
          <mxGeometry width="50" height="50" relative="1" as="geometry">
            <mxPoint x="600" y="-118.71" as="sourcePoint" />
            <mxPoint x="600" y="10" as="targetPoint" />
          </mxGeometry>
        </mxCell>
        <mxCell id="AwsAyfKVxBf3ktl2MzY7-41" value="" style="endArrow=none;html=1;rounded=0;" edge="1" parent="1">
          <mxGeometry width="50" height="50" relative="1" as="geometry">
            <mxPoint x="100" y="-120" as="sourcePoint" />
            <mxPoint x="600" y="-120" as="targetPoint" />
          </mxGeometry>
        </mxCell>
        <mxCell id="AwsAyfKVxBf3ktl2MzY7-42" value="" style="endArrow=none;html=1;rounded=0;" edge="1" parent="1">
          <mxGeometry width="50" height="50" relative="1" as="geometry">
            <mxPoint x="100" y="-120" as="sourcePoint" />
            <mxPoint x="100" y="-70" as="targetPoint" />
          </mxGeometry>
        </mxCell>
        <mxCell id="AwsAyfKVxBf3ktl2MzY7-43" value="" style="endArrow=classic;html=1;rounded=0;" edge="1" parent="1">
          <mxGeometry width="50" height="50" relative="1" as="geometry">
            <mxPoint x="100" y="-70" as="sourcePoint" />
            <mxPoint x="140" y="-70" as="targetPoint" />
          </mxGeometry>
        </mxCell>
        <mxCell id="AwsAyfKVxBf3ktl2MzY7-44" value="ROM[19-16]" style="text;html=1;align=center;verticalAlign=middle;resizable=0;points=[];autosize=1;strokeColor=none;fillColor=none;" vertex="1" parent="1">
          <mxGeometry x="20" y="-90" width="80" height="20" as="geometry" />
        </mxCell>
        <mxCell id="AwsAyfKVxBf3ktl2MzY7-45" value="" style="endArrow=classic;html=1;rounded=0;exitX=0.5;exitY=0;exitDx=0;exitDy=0;" edge="1" parent="1">
          <mxGeometry width="50" height="50" relative="1" as="geometry">
            <mxPoint x="60" y="-49.709999999999994" as="sourcePoint" />
            <mxPoint x="140" y="-49.709999999999994" as="targetPoint" />
          </mxGeometry>
        </mxCell>
        <mxCell id="AwsAyfKVxBf3ktl2MzY7-46" value="" style="endArrow=classic;html=1;rounded=0;exitX=0.5;exitY=0;exitDx=0;exitDy=0;" edge="1" parent="1">
          <mxGeometry width="50" height="50" relative="1" as="geometry">
            <mxPoint x="60" y="-29.710000000000036" as="sourcePoint" />
            <mxPoint x="140" y="-29.710000000000036" as="targetPoint" />
          </mxGeometry>
        </mxCell>
        <mxCell id="AwsAyfKVxBf3ktl2MzY7-47" value="" style="endArrow=classic;html=1;rounded=0;exitX=0.5;exitY=0;exitDx=0;exitDy=0;" edge="1" parent="1">
          <mxGeometry width="50" height="50" relative="1" as="geometry">
            <mxPoint x="60" y="-10.710000000000036" as="sourcePoint" />
            <mxPoint x="140" y="-10.710000000000036" as="targetPoint" />
          </mxGeometry>
        </mxCell>
        <mxCell id="AwsAyfKVxBf3ktl2MzY7-48" value="" style="endArrow=classic;html=1;rounded=0;exitX=0.5;exitY=0;exitDx=0;exitDy=0;" edge="1" parent="1">
          <mxGeometry width="50" height="50" relative="1" as="geometry">
            <mxPoint x="60" y="9.289999999999964" as="sourcePoint" />
            <mxPoint x="140" y="9.289999999999964" as="targetPoint" />
          </mxGeometry>
        </mxCell>
        <mxCell id="AwsAyfKVxBf3ktl2MzY7-49" value="COP0" style="text;html=1;align=center;verticalAlign=middle;resizable=0;points=[];autosize=1;strokeColor=none;fillColor=none;" vertex="1" parent="1">
          <mxGeometry x="10" y="-60" width="50" height="20" as="geometry" />
        </mxCell>
        <mxCell id="AwsAyfKVxBf3ktl2MzY7-50" value="COP1" style="text;html=1;align=center;verticalAlign=middle;resizable=0;points=[];autosize=1;strokeColor=none;fillColor=none;" vertex="1" parent="1">
          <mxGeometry x="10" y="-40" width="50" height="20" as="geometry" />
        </mxCell>
        <mxCell id="AwsAyfKVxBf3ktl2MzY7-51" value="CF" style="text;html=1;align=center;verticalAlign=middle;resizable=0;points=[];autosize=1;strokeColor=none;fillColor=none;" vertex="1" parent="1">
          <mxGeometry x="20" y="-20" width="30" height="20" as="geometry" />
        </mxCell>
        <mxCell id="AwsAyfKVxBf3ktl2MzY7-52" value="A0" style="text;html=1;align=center;verticalAlign=middle;resizable=0;points=[];autosize=1;strokeColor=none;fillColor=none;" vertex="1" parent="1">
          <mxGeometry x="20" width="30" height="20" as="geometry" />
        </mxCell>
        <mxCell id="AwsAyfKVxBf3ktl2MzY7-53" value="ROM[22-20]" style="text;html=1;align=center;verticalAlign=middle;resizable=0;points=[];autosize=1;strokeColor=none;fillColor=none;" vertex="1" parent="1">
          <mxGeometry x="500" y="-70" width="80" height="20" as="geometry" />
        </mxCell>
        <mxCell id="AwsAyfKVxBf3ktl2MzY7-55" value="SPO" style="rounded=0;whiteSpace=wrap;html=1;" vertex="1" parent="1">
          <mxGeometry x="255" y="100" width="70" height="110" as="geometry" />
        </mxCell>
        <mxCell id="AwsAyfKVxBf3ktl2MzY7-56" value="" style="endArrow=none;html=1;rounded=0;exitDx=0;exitDy=0;startArrow=none;" edge="1" parent="1" source="AwsAyfKVxBf3ktl2MzY7-66">
          <mxGeometry width="50" height="50" relative="1" as="geometry">
            <mxPoint x="380" y="110" as="sourcePoint" />
            <mxPoint x="440" y="155" as="targetPoint" />
          </mxGeometry>
        </mxCell>
        <mxCell id="AwsAyfKVxBf3ktl2MzY7-57" value="Y_EN" style="text;html=1;align=center;verticalAlign=middle;resizable=0;points=[];autosize=1;strokeColor=none;fillColor=none;" vertex="1" parent="1">
          <mxGeometry x="320" y="135" width="50" height="20" as="geometry" />
        </mxCell>
        <mxCell id="AwsAyfKVxBf3ktl2MzY7-59" value="" style="endArrow=none;html=1;rounded=0;" edge="1" parent="1">
          <mxGeometry width="50" height="50" relative="1" as="geometry">
            <mxPoint x="440" y="155" as="sourcePoint" />
            <mxPoint x="440" y="50" as="targetPoint" />
          </mxGeometry>
        </mxCell>
        <mxCell id="AwsAyfKVxBf3ktl2MzY7-60" value="" style="endArrow=none;html=1;rounded=0;exitX=-0.004;exitY=0.853;exitDx=0;exitDy=0;exitPerimeter=0;" edge="1" parent="1" source="AwsAyfKVxBf3ktl2MzY7-9">
          <mxGeometry width="50" height="50" relative="1" as="geometry">
            <mxPoint x="370" y="70" as="sourcePoint" />
            <mxPoint x="440" y="50" as="targetPoint" />
          </mxGeometry>
        </mxCell>
        <mxCell id="AwsAyfKVxBf3ktl2MzY7-62" value="" style="endArrow=none;html=1;rounded=0;" edge="1" parent="1">
          <mxGeometry width="50" height="50" relative="1" as="geometry">
            <mxPoint x="440" y="155" as="sourcePoint" />
            <mxPoint x="600" y="155" as="targetPoint" />
          </mxGeometry>
        </mxCell>
        <mxCell id="AwsAyfKVxBf3ktl2MzY7-63" value="" style="endArrow=none;html=1;rounded=0;" edge="1" parent="1">
          <mxGeometry width="50" height="50" relative="1" as="geometry">
            <mxPoint x="600" y="156.29" as="sourcePoint" />
            <mxPoint x="600" y="80" as="targetPoint" />
          </mxGeometry>
        </mxCell>
        <mxCell id="AwsAyfKVxBf3ktl2MzY7-64" value="" style="endArrow=none;html=1;rounded=0;exitX=0.75;exitY=1;exitDx=0;exitDy=0;" edge="1" parent="1" source="AwsAyfKVxBf3ktl2MzY7-19">
          <mxGeometry width="50" height="50" relative="1" as="geometry">
            <mxPoint x="469.72" y="60.11999999999989" as="sourcePoint" />
            <mxPoint x="600" y="80" as="targetPoint" />
          </mxGeometry>
        </mxCell>
        <mxCell id="AwsAyfKVxBf3ktl2MzY7-66" value="" style="shape=waypoint;sketch=0;fillStyle=solid;size=6;pointerEvents=1;points=[];fillColor=none;resizable=0;rotatable=0;perimeter=centerPerimeter;snapToPoint=1;" vertex="1" parent="1">
          <mxGeometry x="420" y="135" width="40" height="40" as="geometry" />
        </mxCell>
        <mxCell id="AwsAyfKVxBf3ktl2MzY7-67" value="" style="endArrow=none;html=1;rounded=0;exitX=0.088;exitY=1.002;exitDx=0;exitDy=0;exitPerimeter=0;" edge="1" parent="1" source="AwsAyfKVxBf3ktl2MzY7-57" target="AwsAyfKVxBf3ktl2MzY7-66">
          <mxGeometry width="50" height="50" relative="1" as="geometry">
            <mxPoint x="330" y="155" as="sourcePoint" />
            <mxPoint x="440" y="155" as="targetPoint" />
          </mxGeometry>
        </mxCell>
        <mxCell id="AwsAyfKVxBf3ktl2MzY7-68" value="" style="endArrow=none;html=1;rounded=0;entryX=0.75;entryY=0;entryDx=0;entryDy=0;" edge="1" parent="1" target="AwsAyfKVxBf3ktl2MzY7-19">
          <mxGeometry width="50" height="50" relative="1" as="geometry">
            <mxPoint x="720" y="80" as="sourcePoint" />
            <mxPoint x="610" y="90" as="targetPoint" />
          </mxGeometry>
        </mxCell>
        <mxCell id="AwsAyfKVxBf3ktl2MzY7-69" value="" style="endArrow=none;html=1;rounded=0;" edge="1" parent="1">
          <mxGeometry width="50" height="50" relative="1" as="geometry">
            <mxPoint x="720" y="230" as="sourcePoint" />
            <mxPoint x="720" y="80" as="targetPoint" />
          </mxGeometry>
        </mxCell>
        <mxCell id="AwsAyfKVxBf3ktl2MzY7-70" value="" style="endArrow=none;html=1;rounded=0;" edge="1" parent="1">
          <mxGeometry width="50" height="50" relative="1" as="geometry">
            <mxPoint x="150" y="230" as="sourcePoint" />
            <mxPoint x="720" y="230" as="targetPoint" />
          </mxGeometry>
        </mxCell>
        <mxCell id="AwsAyfKVxBf3ktl2MzY7-72" value="SNO" style="text;html=1;align=center;verticalAlign=middle;resizable=0;points=[];autosize=1;strokeColor=none;fillColor=none;" vertex="1" parent="1">
          <mxGeometry x="680" y="90" width="40" height="20" as="geometry" />
        </mxCell>
        <mxCell id="AwsAyfKVxBf3ktl2MzY7-73" value="" style="endArrow=none;html=1;rounded=0;" edge="1" parent="1">
          <mxGeometry width="50" height="50" relative="1" as="geometry">
            <mxPoint x="150" y="160" as="sourcePoint" />
            <mxPoint x="150" y="230" as="targetPoint" />
          </mxGeometry>
        </mxCell>
        <mxCell id="AwsAyfKVxBf3ktl2MzY7-75" value="SNO" style="text;html=1;align=center;verticalAlign=middle;resizable=0;points=[];autosize=1;strokeColor=none;fillColor=none;" vertex="1" parent="1">
          <mxGeometry x="110" y="155" width="40" height="20" as="geometry" />
        </mxCell>
        <mxCell id="AwsAyfKVxBf3ktl2MzY7-76" value="" style="endArrow=classic;html=1;rounded=0;" edge="1" parent="1">
          <mxGeometry width="50" height="50" relative="1" as="geometry">
            <mxPoint x="120" y="120" as="sourcePoint" />
            <mxPoint x="180" y="120" as="targetPoint" />
          </mxGeometry>
        </mxCell>
        <mxCell id="AwsAyfKVxBf3ktl2MzY7-77" value="START" style="text;html=1;align=center;verticalAlign=middle;resizable=0;points=[];autosize=1;strokeColor=none;fillColor=none;" vertex="1" parent="1">
          <mxGeometry x="120" y="100" width="50" height="20" as="geometry" />
        </mxCell>
        <mxCell id="AwsAyfKVxBf3ktl2MzY7-78" value="" style="endArrow=classic;html=1;rounded=0;" edge="1" parent="1">
          <mxGeometry width="50" height="50" relative="1" as="geometry">
            <mxPoint x="120" y="140.14" as="sourcePoint" />
            <mxPoint x="180" y="140" as="targetPoint" />
          </mxGeometry>
        </mxCell>
        <mxCell id="AwsAyfKVxBf3ktl2MzY7-79" value="SKO" style="text;html=1;align=center;verticalAlign=middle;resizable=0;points=[];autosize=1;strokeColor=none;fillColor=none;" vertex="1" parent="1">
          <mxGeometry x="125" y="120" width="40" height="20" as="geometry" />
        </mxCell>
        <mxCell id="AwsAyfKVxBf3ktl2MzY7-80" value="" style="shape=trapezoid;perimeter=trapezoidPerimeter;whiteSpace=wrap;html=1;fixedSize=1;rotation=90;" vertex="1" parent="1">
          <mxGeometry x="157.5" y="110" width="90" height="45" as="geometry" />
        </mxCell>
        <mxCell id="AwsAyfKVxBf3ktl2MzY7-81" value="" style="endArrow=classic;html=1;rounded=0;exitX=1.003;exitY=0.256;exitDx=0;exitDy=0;exitPerimeter=0;entryX=0.807;entryY=1.004;entryDx=0;entryDy=0;entryPerimeter=0;" edge="1" parent="1" source="AwsAyfKVxBf3ktl2MzY7-75" target="AwsAyfKVxBf3ktl2MzY7-80">
          <mxGeometry width="50" height="50" relative="1" as="geometry">
            <mxPoint x="290" y="160" as="sourcePoint" />
            <mxPoint x="340" y="110" as="targetPoint" />
          </mxGeometry>
        </mxCell>
        <mxCell id="AwsAyfKVxBf3ktl2MzY7-82" value="" style="endArrow=none;html=1;rounded=0;exitX=0.5;exitY=0;exitDx=0;exitDy=0;entryX=-0.006;entryY=0.294;entryDx=0;entryDy=0;entryPerimeter=0;" edge="1" parent="1" source="AwsAyfKVxBf3ktl2MzY7-80" target="AwsAyfKVxBf3ktl2MzY7-55">
          <mxGeometry width="50" height="50" relative="1" as="geometry">
            <mxPoint x="387.5435484057184" y="20.829513648636407" as="sourcePoint" />
            <mxPoint x="469.9999999999999" y="21.289999999999964" as="targetPoint" />
          </mxGeometry>
        </mxCell>
        <mxCell id="AwsAyfKVxBf3ktl2MzY7-83" value="KC2" style="text;html=1;align=center;verticalAlign=middle;resizable=0;points=[];autosize=1;strokeColor=none;fillColor=none;" vertex="1" parent="1">
          <mxGeometry x="182.5" y="122.5" width="40" height="20" as="geometry" />
        </mxCell>
      </root>
    </mxGraphModel>
  </diagram>
</mxfile>
